{"title":"Lesbian _two horny girl _ sex.flv","uid":8448145,"size":9409481,"categoryP":"porn","categoryS":"movie_clips","magnet":"?xt=urn:btih:2b3b6e4769f06f187ad5b96a9f078afa7c007637&amp;dn=Lesbian+_two+horny+girl+_+sex.flv&amp;tr=udp%3A%2F%2Ftracker.openbittorrent.com%3A80&amp;tr=udp%3A%2F%2Fopen.demonii.com%3A1337&amp;tr=udp%3A%2F%2Ftracker.coppersurfer.tk%3A6969&amp;tr=udp%3A%2F%2Fexodus.desync.com%3A6969","seeders":0,"leechers":1,"uploader":"somnath2003","files":1,"time":1367940838,"description":"General\nComplete name : Lesbian _twohorny girl _ sex.flv\nFormat : Flash Video\nFile size : 8.97 MiB\nDuration : 2mn 26s\nOverall bit rate : 514 Kbps\nTagged date : UTC 2012-03-22 23:53:20\nWriting application : Lavf53.31.100\n\n\nVideo\nFormat : AVC\nFormat/Info : Advanced Video Codec\nFormat profile : &lt;a class=&quot;__cf_email__&quot; href=&quot;/cdn-cgi/l/email-protection&quot; data-cfemail=&quot;6d25040a052d215e435d&quot;&gt;[email&amp;#160;protected]&lt;/a&gt;&lt;script data-cfhash='f9e31' type=&quot;text/javascript&quot;&gt;\n/* &lt;![CDATA[ */!function(){try{var t=&quot;currentScript&quot;in document?document.currentScript:function(){for(var t=document.getElementsByTagName(&quot;script&quot;),e=t.length;e--;)if(t[e].getAttribute(&quot;data-cfhash&quot;))return t[e]}();if(t&amp;&amp;t.previousSibling){var e,r,n,i,c=t.previousSibling,a=c.getAttribute(&quot;data-cfemail&quot;);if(a){for(e=&quot;&quot;,r=parseInt(a.substr(0,2),16),n=2;a.length-n;n+=2)i=parseInt(a.substr(n,2),16)^r,e+=String.fromCharCode(i);e=document.createTextNode(e),c.parentNode.replaceChild(e,c)}t.parentNode.removeChild(t);}}catch(u){}}()/* ]]&gt; */&lt;/script&gt;\nFormat settings, CABAC : Yes\nFormat settings, ReFrames : 4 frames\nCodec ID : 7\nDuration : 2mn 26s\nBit rate : 400 Kbps\nWidth : 542 pixels\nHeight : 406 pixels\nDisplay aspect ratio : 4:3\nFrame rate mode : Constant\nFrame rate : 25.000 fps\nColor space : YUV\nChroma subsampling : 4:2:0\nBit depth : 8 bits\nScan type : Progressive\nBits/(Pixel*Frame) : 0.073\nStream size : 7.14 MiB (80%)\nWriting library : x264 core 120\n\n\nAudio\nFormat : AAC\nFormat/Info : Advanced Audio Codec\nFormat profile : LC\nCodec ID : 10\nDuration : 2mn 26s\nBit rate : 93.8 Kbps\nChannel(s) : 2 channels\nChannel positions : Front: L R\nSampling rate : 44.1 KHz\nCompression mode : Lossy\nDelay relative to video : 40ms\nStream size : 1.69 MiB (19%)\n\n","torrent":{"xt":"urn:btih:2b3b6e4769f06f187ad5b96a9f078afa7c007637","amp;dn":"Lesbian+_two+horny+girl+_+sex.flv","amp;tr":["udp%3A%2F%2Ftracker.openbittorrent.com%3A80","udp%3A%2F%2Fopen.demonii.com%3A1337","udp%3A%2F%2Ftracker.coppersurfer.tk%3A6969","udp%3A%2F%2Fexodus.desync.com%3A6969"],"infoHash":"2b3b6e4769f06f187ad5b96a9f078afa7c007637","infoHashBuffer":{"type":"Buffer","data":[43,59,110,71,105,240,111,24,122,213,185,106,159,7,138,250,124,0,118,55]},"announce":[],"urlList":[]}}